HIERARCHY
ROOT Hips
{
	OFFSET -32.860001 56.121803 44.745396
	CHANNELS 6 Xposition Yposition Zposition Zrotation Xrotation Yrotation
	JOINT Chest
	{
		OFFSET -0.637402 0.831600 5.390099
		CHANNELS 6 Xposition Yposition Zposition Zrotation Xrotation Yrotation
		JOINT Chest2
		{
			OFFSET 0.000000 0.000000 4.429901
			CHANNELS 6 Xposition Yposition Zposition Zrotation Xrotation Yrotation
			JOINT Neck
			{
				OFFSET 0.000000 0.000000 10.301395
				CHANNELS 6 Xposition Yposition Zposition Zrotation Xrotation Yrotation
				JOINT Head
				{
					OFFSET 0.000000 0.000000 2.173897
					CHANNELS 6 Xposition Yposition Zposition Zrotation Xrotation Yrotation
					End Site
					{
						OFFSET 0.000000 0.000000 8.298004
					}
				}
			}
			JOINT LeftCollar
			{
				OFFSET 2.142401 -0.572701 5.717800
				CHANNELS 6 Xposition Yposition Zposition Zrotation Xrotation Yrotation
				JOINT LeftShoulder
				{
					OFFSET 5.674000 0.000000 0.000000
					CHANNELS 6 Xposition Yposition Zposition Zrotation Xrotation Yrotation
					JOINT LeftElbow
					{
						OFFSET 0.000000 0.000000 -12.238701
						CHANNELS 6 Xposition Yposition Zposition Zrotation Xrotation Yrotation
						JOINT LeftWrist
						{
							OFFSET 0.000000 0.000000 -10.253700
							CHANNELS 6 Xposition Yposition Zposition Zrotation Xrotation Yrotation
							End Site
							{
								OFFSET 0.000000 0.000000 -2.173901
							}
						}
					}
				}
			}
			JOINT RightCollar
			{
				OFFSET -2.882599 -1.580101 6.695801
				CHANNELS 6 Xposition Yposition Zposition Zrotation Xrotation Yrotation
				JOINT RightShoulder
				{
					OFFSET -4.235600 0.000000 0.000000
					CHANNELS 6 Xposition Yposition Zposition Zrotation Xrotation Yrotation
					JOINT RightElbow
					{
						OFFSET 0.000000 0.000000 -10.709900
						CHANNELS 6 Xposition Yposition Zposition Zrotation Xrotation Yrotation
						JOINT RightWrist
						{
							OFFSET 0.000000 0.000000 -11.716801
							CHANNELS 6 Xposition Yposition Zposition Zrotation Xrotation Yrotation
							End Site
							{
								OFFSET 0.000000 0.000000 -2.173901
							}
						}
					}
				}
			}
		}
	}
	JOINT LeftHip
	{
		OFFSET 2.279499 0.210400 -2.475502
		CHANNELS 6 Xposition Yposition Zposition Zrotation Xrotation Yrotation
		JOINT LeftKnee
		{
			OFFSET 0.000000 -0.000004 -20.742800
			CHANNELS 6 Xposition Yposition Zposition Zrotation Xrotation Yrotation
			JOINT LeftAnkle
			{
				OFFSET 0.000000 0.000000 -16.666000
				CHANNELS 6 Xposition Yposition Zposition Zrotation Xrotation Yrotation
				End Site
				{
					OFFSET 0.000000 -8.310898 0.000000
				}
			}
		}
	}
	JOINT RightHip
	{
		OFFSET -1.961899 0.232300 -2.727402
		CHANNELS 6 Xposition Yposition Zposition Zrotation Xrotation Yrotation
		JOINT RightKnee
		{
			OFFSET 0.000000 -0.000004 -20.526800
			CHANNELS 6 Xposition Yposition Zposition Zrotation Xrotation Yrotation
			JOINT RightAnkle
			{
				OFFSET 0.000000 0.000000 -16.867300
				CHANNELS 6 Xposition Yposition Zposition Zrotation Xrotation Yrotation
				End Site
				{
					OFFSET 0.000000 -7.186401 0.000000
				}
			}
		}
	}
}
MOTION
Frames: 9
Frame Time: 0.041667
56.350220 54.125408 45.665695 2016.232938 8.587195 12.460050 -0.637399 0.831591 5.390093 -2.551126 -7.260524 5.856511 -0.000003 -0.000001 4.429896 -0.618557 -0.040581 0.062966 -0.000012 0.000009 10.301407 418.907523 0.302133 -11.720667 -0.000005 0.000001 2.173896 -356.863177 3.203167 3.817706 2.142395 -0.572692 5.717807 7.104061 -9.645582 -13.500950 5.673993 -0.000006 -0.000004 -9.547222 -715.988022 276.413384 -0.000003 0.000012 -12.238701 -1065.824464 236.580978 -342.879977 -0.000001 -0.000006 -10.253709 -231.595268 138.655258 -57.608664 -2.882606 -1.580094 6.695802 -3.583103 -8.799471 32.210124 -4.235589 -0.000002 -0.000009 -1464.054655 -60.510599 -644.283548 0.000001 0.000004 -10.709906 117.466249 -160.065647 154.468922 -0.000000 -0.000002 -11.716797 -895.058807 -4.486269 -42.329332 2.279502 0.210405 -2.475501 390.759357 -28.558633 -6.279450 -0.000001 -0.000011 -20.742798 -374.079981 25.739342 -4.591044 0.000009 0.000009 -16.666002 361.008201 25.897828 12.726101 -1.961898 0.232300 -2.727409 -1076.601082 -1.293090 11.287719 -0.000005 -0.000014 -20.526802 881.963094 159.854908 -183.167765 -0.000016 0.000000 -16.867300 48.207185 70.734908 -45.574639
56.353516 54.121304 45.664696 2016.283427 8.474187 12.429431 -0.637399 0.831602 5.390097 -2.531704 -7.087958 5.877922 -0.000004 0.000003 4.429902 -0.659262 -0.035804 0.060994 0.000012 -0.000006 10.301396 418.914298 0.305122 -11.689396 -0.000001 0.000004 2.173900 -356.875608 3.182148 3.838783 2.142413 -0.572698 5.717801 7.153376 -9.735498 -13.563076 5.673989 0.000009 -0.000003 -9.618955 -715.992994 276.554032 0.000000 0.000002 -12.238706 -1065.767200 236.582781 -342.816347 0.000004 -0.000002 -10.253710 -231.534260 138.643496 -57.571460 -2.882579 -1.580099 6.695787 -3.605396 -8.967479 32.245460 -4.235596 -0.000003 0.000008 -1464.058043 -60.511009 -644.365620 -0.000013 0.000002 -10.709888 117.632400 -160.039242 154.490724 -0.000003 -0.000002 -11.716810 -895.015585 -4.502495 -42.145993 2.279505 0.210409 -2.475501 390.726709 -28.459288 -6.312243 0.000003 -0.000005 -20.742800 -374.085226 25.759883 -4.601245 0.000006 0.000004 -16.666000 360.991426 25.905487 12.747867 -1.961897 0.232310 -2.727406 -1076.689820 -1.198554 11.316263 0.000008 -0.000008 -20.526796 881.968776 159.840838 -183.158913 -0.000002 -0.000006 -16.867302 48.248863 70.691003 -45.559578
56.357910 54.116405 45.663788 2016.354024 8.379951 12.391964 -0.637399 0.831598 5.390097 -2.519159 -6.934080 5.899814 -0.000008 0.000003 4.429897 -0.709374 -0.024138 0.059408 0.000000 -0.000001 10.301391 418.918369 0.322539 -11.661377 0.000002 0.000001 2.173898 -356.885908 3.146634 3.862080 2.142394 -0.572694 5.717800 7.196466 -9.823115 -13.625825 5.673999 0.000000 0.000002 -9.681918 -715.986492 276.706645 0.000005 0.000011 -12.238691 -1065.692887 236.567864 -342.755039 0.000008 0.000000 -10.253695 -231.483526 138.635997 -57.536687 -2.882608 -1.580093 6.695789 -3.626844 -9.158618 32.303438 -4.235601 -0.000011 -0.000006 -1464.089626 -60.474953 -644.482225 -0.000004 0.000002 -10.709898 117.401294 -160.205202 154.405674 -0.000003 -0.000007 -11.716801 -894.438134 -4.461698 -41.779926 2.279503 0.210404 -2.475507 390.730097 -28.385148 -6.305122 -0.000004 -0.000015 -20.742807 -374.118776 25.796093 -4.617410 -0.000008 -0.000002 -16.666000 360.948068 25.895713 12.795705 -1.961896 0.232305 -2.727401 -1076.879644 -1.145448 11.348948 0.000012 -0.000002 -20.526798 882.080027 159.808409 -183.151263 0.000001 -0.000003 -16.867304 48.236811 70.638896 -45.506467
56.363213 54.110199 45.662590 2016.405824 8.318209 12.359550 -0.637396 0.831601 5.390099 -2.507812 -6.828258 5.916499 -0.000004 0.000003 4.429907 -0.748783 -0.015537 0.056305 -0.000003 -0.000001 10.301399 418.924243 0.352451 -11.645219 -0.000004 0.000009 2.173899 -356.894268 3.106328 3.883543 2.142396 -0.572700 5.717807 7.231313 -9.896297 -13.672178 5.673994 -0.000007 0.000000 -9.738953 -715.983486 276.837020 0.000001 0.000004 -12.238695 -1065.633547 236.555460 -342.697611 0.000006 -0.000011 -10.253702 -231.435168 138.614659 -57.494067 -2.882607 -1.580099 6.695801 -3.757604 -9.390067 32.995008 -4.235588 -0.000004 0.000001 -1465.046398 -60.193262 -645.806407 0.000005 -0.000004 -10.709904 117.223928 -160.331628 154.290750 0.000000 0.000002 -11.716805 -894.168314 -4.714981 -41.471768 2.279510 0.210401 -2.475495 390.807387 -28.356551 -6.255636 -0.000002 -0.000012 -20.742804 -374.153883 25.832575 -4.639800 0.000001 0.000006 -16.666000 360.868346 25.889274 12.824477 -1.961889 0.232306 -2.727407 -1077.120395 -1.166113 11.374225 -0.000009 0.000000 -20.526794 882.267829 159.743727 -183.128150 -0.000003 0.000006 -16.867302 48.220811 70.570198 -45.467012
56.370117 54.101105 45.659187 2016.447789 8.295858 12.335179 -0.637396 0.831601 5.390098 -2.619976 -6.786500 5.904740 -0.000005 -0.000008 4.429899 -0.646675 -0.028034 0.056085 0.000001 0.000004 10.301399 418.927249 0.392053 -11.644820 -0.000008 0.000004 2.173908 -356.911480 3.070374 3.892276 2.142390 -0.572695 5.717801 7.103280 -9.694443 -13.495932 5.673995 0.000005 0.000010 -9.620836 -716.073153 276.677248 0.000004 0.000009 -12.238707 -1065.513008 236.574858 -342.633571 0.000000 -0.000006 -10.253707 -231.396864 138.577490 -57.432062 -2.882607 -1.580091 6.695800 -3.686481 -9.071324 32.406543 -4.235607 -0.000001 0.000007 -1464.499437 -60.828995 -644.947005 -0.000007 -0.000010 -10.709909 117.147320 -160.428180 154.239728 0.000006 0.000008 -11.716814 -893.897456 -4.743282 -41.364288 2.279505 0.210408 -2.475506 390.692312 -28.322278 -6.265346 -0.000013 -0.000010 -20.742796 -374.168363 25.857395 -4.635377 -0.000002 -0.000002 -16.666002 360.944571 25.873400 12.859090 -1.961889 0.232304 -2.727409 -1077.627905 -1.329902 11.423947 -0.000000 0.000002 -20.526798 882.607754 159.579802 -183.080379 -0.000001 -0.000001 -16.867302 48.360174 70.481501 -45.470024
56.376907 54.091496 45.656193 2016.491720 8.294805 12.319729 -0.637403 0.831598 5.390099 -2.690549 -6.751516 5.892516 -0.000007 0.000005 4.429905 -0.587747 -0.048968 0.055103 0.000012 -0.000002 10.301398 418.930390 0.421325 -11.646061 -0.000005 -0.000002 2.173894 -356.928392 3.040250 3.902639 2.142412 -0.572703 5.717798 7.024274 -9.549437 -13.360741 5.674001 -0.000001 0.000001 -9.572234 -716.108998 276.571080 -0.000004 0.000001 -12.238701 -1065.375967 236.586387 -342.558357 0.000002 0.000002 -10.253695 -231.382384 138.534896 -57.379927 -2.882592 -1.580098 6.695801 -3.740331 -8.945785 32.414787 -4.235586 -0.000001 -0.000005 -1464.639428 -61.017160 -645.109619 0.000000 -0.000002 -10.709881 117.116093 -160.475445 154.237023 0.000008 -0.000007 -11.716782 -893.671349 -4.783664 -41.129678 2.279496 0.210409 -2.475499 390.659527 -28.327764 -6.240925 -0.000015 0.000000 -20.742796 -374.209727 25.884998 -4.636225 -0.000001 0.000008 -16.666000 360.954051 25.856137 12.917354 -1.961898 0.232303 -2.727400 -1078.044164 -1.479113 11.450699 0.000003 -0.000003 -20.526796 882.904567 159.446053 -183.040559 0.000001 0.000004 -16.867300 48.448366 70.410159 -45.448311
56.383316 54.081100 45.653187 2016.535652 8.285583 12.318834 -0.637407 0.831587 5.390100 -2.733758 -6.689575 5.872277 0.000004 0.000004 4.429900 -0.544516 -0.085526 0.054893 0.000001 0.000000 10.301394 418.903370 0.442688 -11.642436 -0.000005 -0.000001 2.173897 -356.932490 3.022450 3.903755 2.142399 -0.572701 5.717803 6.953000 -9.388788 -13.208775 5.673999 0.000004 0.000000 -9.559349 -716.156099 276.438683 0.000003 0.000011 -12.238699 -1065.236849 236.612397 -342.470439 -0.000010 0.000000 -10.253704 -231.394706 138.477632 -57.310936 -2.882597 -1.580090 6.695799 -3.813814 -8.854031 32.393016 -4.235596 -0.000004 0.000007 -1464.695818 -61.168647 -645.207427 -0.000003 -0.000004 -10.709902 117.108197 -160.487999 154.233144 0.000011 -0.000003 -11.716805 -893.508244 -4.783143 -40.904596 2.279494 0.210402 -2.475495 390.666931 -28.343521 -6.215976 0.000004 -0.000009 -20.742800 -374.226147 25.906499 -4.652576 0.000006 0.000002 -16.666000 360.908452 25.845702 12.949427 -1.961895 0.232290 -2.727402 -1078.409825 -1.604697 11.458615 -0.000001 -0.000006 -20.526794 883.165753 159.324162 -183.001149 -0.000007 0.000002 -16.867302 48.525701 70.348496 -45.424873
56.388718 54.065292 45.651295 2016.670289 8.374143 12.269848 -0.637400 0.831600 5.390101 -2.868557 -6.695031 5.888238 -0.000007 0.000005 4.429898 -0.510279 -0.130875 0.052736 0.000012 -0.000002 10.301399 418.870913 0.456791 -11.631468 0.000006 0.000009 2.173891 -356.938309 3.018940 3.898737 2.142404 -0.572696 5.717802 6.964034 -9.284288 -13.065426 5.674007 -0.000002 -0.000003 -9.651754 -716.200249 276.321095 -0.000003 0.000008 -12.238695 -1065.139478 236.648296 -342.384406 0.000007 -0.000006 -10.253710 -231.426562 138.413743 -57.221877 -2.882588 -1.580090 6.695794 -3.903271 -8.800029 32.334659 -4.235595 0.000003 -0.000003 -1464.636368 -61.298216 -645.205952 0.000005 0.000002 -10.709894 117.221414 -160.431855 154.258620 0.000001 -0.000004 -11.716797 -893.548843 -4.789779 -40.760660 2.279501 0.210401 -2.475500 390.575680 -28.399308 -6.113114 -0.000006 -0.000009 -20.742804 -374.202459 25.909983 -4.682773 -0.000005 0.000003 -16.666000 360.865941 25.850166 12.948071 -1.961898 0.232301 -2.727397 -1078.869688 -1.813013 11.498236 0.000001 -0.000001 -20.526802 883.406067 159.194743 -182.951876 -0.000006 0.000002 -16.867304 48.636906 70.296430 -45.423599
56.393295 54.052891 45.649693 2016.732799 8.415071 12.263489 -0.637407 0.831604 5.390100 -2.591925 -6.619244 5.947615 -0.000005 0.000002 4.429897 -0.696305 -0.213735 0.051007 -0.000002 -0.000002 10.301406 418.705677 0.440630 -11.675232 -0.000005 -0.000003 2.173903 -356.941451 3.035821 3.909935 2.142397 -0.572705 5.717808 6.889646 -8.993732 -12.888137 5.674005 0.000006 0.000005 -9.772585 -716.372097 276.099250 -0.000002 -0.000001 -12.238708 -1065.009541 236.723811 -342.288537 -0.000003 -0.000008 -10.253708 -231.439539 138.335400 -57.135489 -2.882602 -1.580092 6.695799 -4.050530 -9.129432 32.083379 -4.235613 -0.000008 -0.000014 -1463.869420 -60.996929 -644.526594 0.000002 -0.000002 -10.709913 117.253311 -160.335904 154.240411 0.000000 0.000006 -11.716795 -893.711238 -4.774832 -40.649195 2.279489 0.210408 -2.475505 390.577128 -28.448757 -6.055723 0.000009 -0.000006 -20.742798 -374.192487 25.912542 -4.707237 -0.000010 0.000005 -16.665998 360.794443 25.845615 12.956623 -1.961900 0.232301 -2.727407 -1079.132405 -1.935486 11.503453 0.000008 -0.000003 -20.526794 883.563434 159.118191 -182.922260 -0.000008 -0.000001 -16.867300 48.774128 70.265892 -45.483258
